
		<svg id="rating-0" xmlns="http://www.w3.org/2000/svg" viewBox="0 0 24 24">
			<defs>
				<style>.a{fill:#f8de40;}.b{fill:#fff;}.c{fill:#864e20;}.d{fill:#e7c930;}</style>
			</defs>
			<rect class="a" x="1" y="1" width="22" height="22" rx="7.656"/>
			<path class="b" d="M7.055,7.313A1.747,1.747,0,1,0,8.8,9.059,1.747,1.747,0,0,0,7.055,7.313Z"/>
			<path class="c" d="M7.055,7.313a.873.873,0,1,0,.873.873A.873.873,0,0,0,7.055,7.313Z"/>
			<path class="d" d="M23,13.938a14.69,14.69,0,0,1-12.406,6.531c-5.542,0-6.563-1-9.142-2.529A7.66,7.66,0,0,0,8.656,23h6.688A7.656,7.656,0,0,0,23,15.344Z"/>
			<path class="c" d="M13.709,13.063H10.291c-.288,0-.521.139-.521.312s.233.312.521.312h3.418c.288,0,.521-.139.521-.312S14,13.063,13.709,13.063Z"/>
			<path class="b" d="M16.958,7.313A1.747,1.747,0,1,0,18.7,9.059,1.747,1.747,0,0,0,16.958,7.313Z"/>
			<path class="c" d="M16.957,7.313a.873.873,0,1,0,.874.873A.873.873,0,0,0,16.957,7.313Z"/>
		</svg>
				<svg id="rating-1" xmlns="http://www.w3.org/2000/svg" viewBox="0 0 24 24">
					<defs>
						<style>.a{fill:#e7253e;}.b{fill:#b51f36;}.c{fill:#90192d;}</style>
					</defs>
					<rect class="a" x="1" y="1" width="22" height="22" rx="7.656"/>
					<path class="b" d="M23,13.938a14.69,14.69,0,0,1-12.406,6.531c-5.542,0-6.563-1-9.142-2.529A7.66,7.66,0,0,0,8.656,23h6.688A7.656,7.656,0,0,0,23,15.344Z"/>
					<path class="c" d="M9.565,8.513A16.121,16.121,0,0,1,5.63,6.328a.52.52,0,0,0-.832.4c-.048,1.583.151,4.483,2.258,4.483A2.6,2.6,0,0,0,9.9,9.1.517.517,0,0,0,9.565,8.513Z"/>
					<path class="c" d="M19.2,6.731a.521.521,0,0,0-.832-.4,16.121,16.121,0,0,1-3.935,2.185A.517.517,0,0,0,14.1,9.1a2.6,2.6,0,0,0,2.84,2.11C19.051,11.214,19.25,8.314,19.2,6.731Z"/>
					<path class="c" d="M14,13.937a.318.318,0,0,1-.313-.326,2.105,2.105,0,0,0-.5-1.331A1.6,1.6,0,0,0,12,11.847a1.6,1.6,0,0,0-1.187.43,2.092,2.092,0,0,0-.5,1.335.32.32,0,0,1-.64.012,2.715,2.715,0,0,1,.679-1.792A2.211,2.211,0,0,1,12,11.207a2.211,2.211,0,0,1,1.647.625,2.721,2.721,0,0,1,.679,1.792A.321.321,0,0,1,14,13.937Z"/>
				</svg>

						<svg id="rating-2" xmlns="http://www.w3.org/2000/svg" viewBox="0 0 24 24">
							<defs>
								<style>.a{fill:#f8de40;}.b{fill:#e7c930;}.c{fill:#864e20;}.d{fill:#26a9e0;}</style>
							</defs>
							<rect class="a" x="1" y="1" width="22" height="22" rx="7.656"/>
							<path class="b" d="M23,13.938a14.69,14.69,0,0,1-12.406,6.531c-5.542,0-6.563-1-9.142-2.529A7.66,7.66,0,0,0,8.656,23h6.688A7.656,7.656,0,0,0,23,15.344Z"/>
							<path class="c" d="M7.055,7.313A1.747,1.747,0,1,0,8.8,9.059,1.747,1.747,0,0,0,7.055,7.313Z"/>
							<path class="c" d="M16.958,7.313A1.747,1.747,0,1,0,18.7,9.059,1.747,1.747,0,0,0,16.958,7.313Z"/>
							<path class="d" d="M8.42,13.921A4.184,4.184,0,0,0,7.054,11.38a4.185,4.185,0,0,0-1.365,2.541c-.111,1.476.937,1.762,1.365,1.762S8.531,15.4,8.42,13.921Z"/>
							<path class="c" d="M14.512,13.366a5.943,5.943,0,0,0-5.024,0c-.592.369-.557-.694.753-.974A7.35,7.35,0,0,1,12,12.078a7.35,7.35,0,0,1,1.759.314C15.069,12.672,15.1,13.735,14.512,13.366Z"/>
							<path class="b" d="M13.074,14.269a2.542,2.542,0,0,0-2.148,0c-.253.158-.238-.3.322-.416A3.144,3.144,0,0,1,12,13.719a3.144,3.144,0,0,1,.752.134C13.312,13.973,13.327,14.427,13.074,14.269Z"/>
						</svg>
>
								<svg id="rating-3" xmlns="http://www.w3.org/2000/svg" viewBox="0 0 24 24">
									<defs>
										<style>.a{fill:#f8de40;}.b{fill:#864e20;}.c{fill:#e7c930;}</style>
									</defs>
									<rect class="a" x="1" y="1" width="22" height="22" rx="7.656"/>
									<path class="b" d="M7.055,7.313A1.747,1.747,0,1,0,8.8,9.059,1.747,1.747,0,0,0,7.055,7.313Z"/>
									<path class="b" d="M16.958,7.313A1.747,1.747,0,1,0,18.7,9.059,1.747,1.747,0,0,0,16.958,7.313Z"/>
									<path class="c" d="M23,13.938a14.69,14.69,0,0,1-12.406,6.531c-5.542,0-6.563-1-9.142-2.529A7.66,7.66,0,0,0,8.656,23h6.688A7.656,7.656,0,0,0,23,15.344Z"/>
									<path class="b" d="M13.709,13.063H10.291c-.288,0-.521.139-.521.312s.233.312.521.312h3.418c.288,0,.521-.139.521-.312S14,13.063,13.709,13.063Z"/>
								</svg>
						
										<svg id="rating-4" xmlns="http://www.w3.org/2000/svg" viewBox="0 0 24 24">
											<defs>
												<style>.a{fill:#f8de40;}.b{fill:#864e20;}.c{fill:#e7c930;}</style>
											</defs>
											<rect class="a" x="1" y="1" width="22" height="22" rx="7.656"/>
											<path class="b" d="M8.907,9.844a.182.182,0,0,1-.331.1,2.016,2.016,0,0,0-.569-.567,1.731,1.731,0,0,0-1.915,0,2.016,2.016,0,0,0-.571.569.182.182,0,0,1-.331-.1,1.632,1.632,0,0,1,.346-1.023,1.927,1.927,0,0,1,3.026,0A1.64,1.64,0,0,1,8.907,9.844Z"/>
											<path class="b" d="M18.81,9.844a.182.182,0,0,1-.331.1,2.026,2.026,0,0,0-.568-.567,1.732,1.732,0,0,0-1.916,0,2.016,2.016,0,0,0-.571.569.182.182,0,0,1-.331-.1,1.632,1.632,0,0,1,.346-1.023,1.927,1.927,0,0,1,3.026,0A1.64,1.64,0,0,1,18.81,9.844Z"/>
											<path class="c" d="M23,13.938a14.69,14.69,0,0,1-12.406,6.531c-5.542,0-6.563-1-9.142-2.529A7.66,7.66,0,0,0,8.656,23h6.688A7.656,7.656,0,0,0,23,15.344Z"/>
											<path class="b" d="M13.308,13.375a1.183,1.183,0,0,0,.434-.908,1.34,1.34,0,0,0-.984-1.2.31.31,0,0,0-.414.228V11.5a.312.312,0,0,0,.2.355c.215.081.575.269.575.613,0,.425-.5.608-.516.616a.317.317,0,0,0-.21.3.311.311,0,0,0,.226.292.715.715,0,0,1,.5.68c0,.268-.366.453-.584.54a.3.3,0,0,0-.145.119l-.1.024.061.243h0a.311.311,0,0,0,.412.2c.366-.146.98-.486.98-1.123A1.285,1.285,0,0,0,13.308,13.375Z"/>
										</svg>
										
												<svg id="rating-5" xmlns="http://www.w3.org/2000/svg" viewBox="0 0 24 24">
													<defs>
														<style>.a{fill:#f8de40;}.b{fill:#e7c930;}.c{fill:#f06880;}.d{fill:#864e20;}</style>
													</defs>
													<rect class="a" x="1" y="1" width="22" height="22" rx="7.656"/>
													<path class="b" d="M23,13.938a14.69,14.69,0,0,1-12.406,6.531c-5.542,0-6.563-1-9.142-2.529A7.66,7.66,0,0,0,8.656,23h6.688A7.656,7.656,0,0,0,23,15.344Z"/>
													<path class="c" d="M9.58,6.983A1.528,1.528,0,0,0,7.5,7.1l-.449.45L6.6,7.1a1.529,1.529,0,0,0-2.083-.113,1.472,1.472,0,0,0-.058,2.136L6.68,11.34a.518.518,0,0,0,.737,0l2.22-2.221A1.471,1.471,0,0,0,9.58,6.983Z"/>
													<path class="c" d="M19.483,6.983A1.528,1.528,0,0,0,17.4,7.1l-.449.45L16.5,7.1a1.529,1.529,0,0,0-2.083-.113,1.471,1.471,0,0,0-.057,2.136l2.221,2.221a.517.517,0,0,0,.736,0l2.221-2.221A1.472,1.472,0,0,0,19.483,6.983Z"/>
													<path class="d" d="M16.666,12.583H7.334a.493.493,0,0,0-.492.544c.123,1.175.875,3.842,5.158,3.842s5.035-2.667,5.158-3.842A.493.493,0,0,0,16.666,12.583Z"/>
													<path class="c" d="M12,16.969a6.538,6.538,0,0,0,2.959-.6,1.979,1.979,0,0,0-1.209-.853c-1.344-.3-1.75.109-1.75.109s-.406-.406-1.75-.109a1.979,1.979,0,0,0-1.209.853A6.538,6.538,0,0,0,12,16.969Z"/>
												</svg>