<svg xmlns="http://www.w3.org/2000/svg" xmlns:xlink="http://www.w3.org/1999/xlink" width="1080" zoomAndPan="magnify" viewBox="0 0 810 809.999993" height="1080" preserveAspectRatio="xMidYMid meet" version="1.0"><rect x="-81" width="972" fill="#ffffff" y="-80.999999" height="971.999992" fill-opacity="1"/><rect x="-81" width="972" fill="#ffffff" y="-80.999999" height="971.999992" fill-opacity="1"/><path fill="#f8de40" d="M 26.78125 3.09375 L 47.46875 3.09375 C 48.246094 3.09375 49.019531 3.132812 49.792969 3.207031 C 50.5625 3.285156 51.332031 3.398438 52.089844 3.550781 C 52.851562 3.699219 53.605469 3.886719 54.347656 4.113281 C 55.089844 4.339844 55.816406 4.601562 56.535156 4.898438 C 57.25 5.195312 57.953125 5.523438 58.636719 5.890625 C 59.320312 6.257812 59.984375 6.65625 60.628906 7.085938 C 61.273438 7.515625 61.898438 7.976562 62.496094 8.46875 C 63.097656 8.960938 63.671875 9.484375 64.21875 10.03125 C 64.765625 10.578125 65.289062 11.152344 65.78125 11.753906 C 66.273438 12.351562 66.734375 12.976562 67.164062 13.621094 C 67.59375 14.265625 67.992188 14.929688 68.359375 15.613281 C 68.726562 16.296875 69.054688 17 69.351562 17.714844 C 69.648438 18.433594 69.910156 19.160156 70.136719 19.902344 C 70.363281 20.644531 70.550781 21.398438 70.699219 22.160156 C 70.851562 22.917969 70.964844 23.6875 71.042969 24.457031 C 71.117188 25.230469 71.15625 26.003906 71.15625 26.78125 L 71.15625 47.46875 C 71.15625 48.246094 71.117188 49.019531 71.042969 49.792969 C 70.964844 50.5625 70.851562 51.332031 70.699219 52.089844 C 70.550781 52.851562 70.363281 53.605469 70.136719 54.347656 C 69.910156 55.089844 69.648438 55.816406 69.351562 56.535156 C 69.054688 57.25 68.726562 57.953125 68.359375 58.636719 C 67.992188 59.320312 67.59375 59.984375 67.164062 60.628906 C 66.734375 61.273438 66.273438 61.898438 65.78125 62.496094 C 65.289062 63.097656 64.765625 63.671875 64.21875 64.21875 C 63.671875 64.765625 63.097656 65.289062 62.496094 65.78125 C 61.898438 66.273438 61.273438 66.734375 60.628906 67.164062 C 59.984375 67.59375 59.320312 67.992188 58.636719 68.359375 C 57.953125 68.726562 57.25 69.054688 56.535156 69.351562 C 55.816406 69.648438 55.089844 69.910156 54.347656 70.136719 C 53.605469 70.363281 52.851562 70.550781 52.089844 70.699219 C 51.332031 70.851562 50.5625 70.964844 49.792969 71.042969 C 49.019531 71.117188 48.246094 71.15625 47.46875 71.15625 L 26.78125 71.15625 C 26.003906 71.15625 25.230469 71.117188 24.457031 71.042969 C 23.6875 70.964844 22.917969 70.851562 22.160156 70.699219 C 21.398438 70.550781 20.644531 70.363281 19.902344 70.136719 C 19.160156 69.910156 18.433594 69.648438 17.714844 69.351562 C 17 69.054688 16.296875 68.726562 15.613281 68.359375 C 14.929688 67.992188 14.265625 67.59375 13.621094 67.164062 C 12.976562 66.734375 12.351562 66.273438 11.753906 65.78125 C 11.152344 65.289062 10.578125 64.765625 10.03125 64.21875 C 9.484375 63.671875 8.960938 63.097656 8.46875 62.496094 C 7.976562 61.898438 7.515625 61.273438 7.085938 60.628906 C 6.65625 59.984375 6.257812 59.320312 5.890625 58.636719 C 5.523438 57.953125 5.195312 57.25 4.898438 56.535156 C 4.601562 55.816406 4.339844 55.089844 4.113281 54.347656 C 3.886719 53.605469 3.699219 52.851562 3.550781 52.089844 C 3.398438 51.332031 3.285156 50.5625 3.207031 49.792969 C 3.132812 49.019531 3.09375 48.246094 3.09375 47.46875 L 3.09375 26.78125 C 3.09375 26.003906 3.132812 25.230469 3.207031 24.457031 C 3.285156 23.6875 3.398438 22.917969 3.550781 22.160156 C 3.699219 21.398438 3.886719 20.644531 4.113281 19.902344 C 4.339844 19.160156 4.601562 18.433594 4.898438 17.714844 C 5.195312 17 5.523438 16.296875 5.890625 15.613281 C 6.257812 14.929688 6.65625 14.265625 7.085938 13.621094 C 7.515625 12.976562 7.976562 12.351562 8.46875 11.753906 C 8.960938 11.152344 9.484375 10.578125 10.03125 10.03125 C 10.578125 9.484375 11.152344 8.960938 11.753906 8.46875 C 12.351562 7.976562 12.976562 7.515625 13.621094 7.085938 C 14.265625 6.65625 14.929688 6.257812 15.613281 5.890625 C 16.296875 5.523438 17 5.195312 17.714844 4.898438 C 18.433594 4.601562 19.160156 4.339844 19.902344 4.113281 C 20.644531 3.886719 21.398438 3.699219 22.160156 3.550781 C 22.917969 3.398438 23.6875 3.285156 24.457031 3.207031 C 25.230469 3.132812 26.003906 3.09375 26.78125 3.09375 Z M 26.78125 3.09375 " fill-opacity="1" fill-rule="nonzero"/><path fill="#ffffff" d="M 21.828125 22.625 C 21.472656 22.625 21.121094 22.660156 20.773438 22.726562 C 20.421875 22.796875 20.085938 22.898438 19.757812 23.035156 C 19.429688 23.167969 19.117188 23.335938 18.820312 23.53125 C 18.527344 23.730469 18.253906 23.953125 18 24.203125 C 17.75 24.457031 17.527344 24.726562 17.328125 25.023438 C 17.132812 25.316406 16.964844 25.628906 16.828125 25.957031 C 16.691406 26.285156 16.589844 26.625 16.519531 26.972656 C 16.449219 27.320312 16.414062 27.671875 16.414062 28.027344 C 16.414062 28.382812 16.449219 28.734375 16.519531 29.082031 C 16.585938 29.429688 16.691406 29.765625 16.824219 30.09375 C 16.960938 30.421875 17.128906 30.734375 17.324219 31.03125 C 17.523438 31.324219 17.746094 31.597656 17.996094 31.851562 C 18.25 32.101562 18.519531 32.324219 18.816406 32.523438 C 19.113281 32.71875 19.421875 32.886719 19.75 33.023438 C 20.078125 33.160156 20.417969 33.261719 20.765625 33.332031 C 21.113281 33.398438 21.464844 33.433594 21.820312 33.433594 C 22.175781 33.433594 22.527344 33.398438 22.875 33.332031 C 23.222656 33.261719 23.5625 33.160156 23.890625 33.023438 C 24.21875 32.886719 24.527344 32.71875 24.824219 32.523438 C 25.117188 32.324219 25.390625 32.101562 25.644531 31.851562 C 25.894531 31.597656 26.117188 31.324219 26.316406 31.03125 C 26.511719 30.734375 26.679688 30.421875 26.816406 30.09375 C 26.949219 29.765625 27.050781 29.429688 27.121094 29.082031 C 27.191406 28.734375 27.226562 28.382812 27.226562 28.027344 C 27.226562 27.671875 27.191406 27.320312 27.121094 26.972656 C 27.050781 26.625 26.949219 26.289062 26.8125 25.960938 C 26.675781 25.632812 26.511719 25.320312 26.3125 25.027344 C 26.117188 24.730469 25.894531 24.460938 25.644531 24.207031 C 25.390625 23.957031 25.121094 23.734375 24.824219 23.535156 C 24.53125 23.339844 24.21875 23.171875 23.890625 23.039062 C 23.566406 22.902344 23.226562 22.800781 22.878906 22.730469 C 22.53125 22.660156 22.179688 22.625 21.828125 22.625 Z M 21.828125 22.625 " fill-opacity="1" fill-rule="nonzero"/><path fill="#864e20" d="M 21.828125 22.625 C 21.46875 22.625 21.125 22.691406 20.792969 22.832031 C 20.460938 22.96875 20.167969 23.164062 19.917969 23.414062 C 19.664062 23.667969 19.46875 23.960938 19.332031 24.292969 C 19.195312 24.621094 19.125 24.96875 19.125 25.324219 C 19.125 25.683594 19.195312 26.027344 19.332031 26.359375 C 19.46875 26.691406 19.664062 26.980469 19.917969 27.234375 C 20.167969 27.488281 20.460938 27.683594 20.792969 27.820312 C 21.125 27.957031 21.46875 28.027344 21.828125 28.027344 C 22.183594 28.027344 22.527344 27.957031 22.859375 27.820312 C 23.191406 27.683594 23.484375 27.488281 23.734375 27.234375 C 23.988281 26.980469 24.183594 26.691406 24.320312 26.359375 C 24.457031 26.027344 24.527344 25.683594 24.527344 25.324219 C 24.527344 24.96875 24.457031 24.621094 24.320312 24.292969 C 24.183594 23.960938 23.988281 23.667969 23.734375 23.414062 C 23.484375 23.164062 23.191406 22.96875 22.859375 22.832031 C 22.527344 22.691406 22.183594 22.625 21.828125 22.625 Z M 21.828125 22.625 " fill-opacity="1" fill-rule="nonzero"/><path fill="#e7c930" d="M 71.15625 43.121094 C 70.109375 44.691406 68.96875 46.1875 67.734375 47.613281 C 66.5 49.039062 65.183594 50.386719 63.78125 51.648438 C 62.378906 52.910156 60.902344 54.082031 59.355469 55.160156 C 57.808594 56.238281 56.199219 57.21875 54.53125 58.097656 C 52.863281 58.976562 51.144531 59.75 49.378906 60.414062 C 47.613281 61.078125 45.816406 61.632812 43.980469 62.070312 C 42.144531 62.511719 40.292969 62.835938 38.417969 63.046875 C 36.542969 63.257812 34.660156 63.351562 32.773438 63.324219 C 15.628906 63.324219 12.472656 60.230469 4.492188 55.5 C 4.902344 56.640625 5.398438 57.742188 5.980469 58.804688 C 6.558594 59.871094 7.214844 60.882812 7.953125 61.84375 C 8.6875 62.808594 9.492188 63.707031 10.367188 64.546875 C 11.238281 65.386719 12.171875 66.15625 13.164062 66.851562 C 14.152344 67.546875 15.191406 68.164062 16.277344 68.699219 C 17.363281 69.238281 18.484375 69.6875 19.640625 70.054688 C 20.792969 70.417969 21.96875 70.695312 23.167969 70.878906 C 24.363281 71.0625 25.566406 71.15625 26.78125 71.15625 L 47.46875 71.15625 C 48.246094 71.15625 49.019531 71.117188 49.792969 71.042969 C 50.5625 70.964844 51.332031 70.851562 52.089844 70.699219 C 52.851562 70.550781 53.605469 70.363281 54.347656 70.136719 C 55.089844 69.910156 55.816406 69.648438 56.535156 69.351562 C 57.25 69.054688 57.953125 68.726562 58.636719 68.359375 C 59.320312 67.992188 59.984375 67.59375 60.628906 67.164062 C 61.273438 66.734375 61.898438 66.273438 62.496094 65.78125 C 63.097656 65.289062 63.671875 64.765625 64.21875 64.21875 C 64.765625 63.671875 65.289062 63.097656 65.78125 62.496094 C 66.273438 61.898438 66.734375 61.273438 67.164062 60.628906 C 67.59375 59.984375 67.992188 59.320312 68.359375 58.636719 C 68.726562 57.953125 69.054688 57.25 69.351562 56.535156 C 69.648438 55.816406 69.910156 55.089844 70.136719 54.347656 C 70.363281 53.605469 70.550781 52.851562 70.699219 52.089844 C 70.851562 51.332031 70.964844 50.5625 71.042969 49.792969 C 71.117188 49.019531 71.15625 48.246094 71.15625 47.46875 Z M 71.15625 43.121094 " fill-opacity="1" fill-rule="nonzero"/><path fill="#864e20" d="M 42.414062 40.414062 L 31.835938 40.414062 C 30.945312 40.414062 30.226562 40.84375 30.226562 41.378906 C 30.226562 41.914062 30.945312 42.34375 31.835938 42.34375 L 42.414062 42.34375 C 43.304688 42.34375 44.023438 41.914062 44.023438 41.378906 C 44.023438 40.84375 43.3125 40.414062 42.414062 40.414062 Z M 42.414062 40.414062 " fill-opacity="1" fill-rule="nonzero"/><path fill="#ffffff" d="M 52.464844 22.625 C 52.109375 22.625 51.757812 22.65625 51.410156 22.726562 C 51.058594 22.792969 50.722656 22.894531 50.394531 23.03125 C 50.0625 23.164062 49.753906 23.332031 49.457031 23.527344 C 49.160156 23.726562 48.886719 23.949219 48.636719 24.199219 C 48.382812 24.449219 48.160156 24.722656 47.960938 25.015625 C 47.761719 25.3125 47.597656 25.625 47.460938 25.949219 C 47.324219 26.277344 47.21875 26.617188 47.148438 26.964844 C 47.078125 27.3125 47.042969 27.664062 47.042969 28.019531 C 47.042969 28.375 47.078125 28.726562 47.144531 29.074219 C 47.214844 29.425781 47.316406 29.761719 47.453125 30.089844 C 47.585938 30.417969 47.753906 30.730469 47.949219 31.027344 C 48.148438 31.320312 48.371094 31.59375 48.621094 31.847656 C 48.875 32.097656 49.144531 32.324219 49.441406 32.519531 C 49.734375 32.71875 50.046875 32.886719 50.375 33.019531 C 50.703125 33.15625 51.042969 33.261719 51.390625 33.328125 C 51.738281 33.398438 52.089844 33.433594 52.445312 33.433594 C 52.800781 33.433594 53.152344 33.398438 53.5 33.332031 C 53.847656 33.261719 54.1875 33.160156 54.515625 33.023438 C 54.84375 32.886719 55.15625 32.722656 55.449219 32.523438 C 55.746094 32.328125 56.019531 32.101562 56.269531 31.851562 C 56.519531 31.601562 56.746094 31.328125 56.941406 31.03125 C 57.140625 30.734375 57.304688 30.425781 57.441406 30.097656 C 57.578125 29.769531 57.679688 29.429688 57.75 29.082031 C 57.820312 28.734375 57.851562 28.382812 57.851562 28.027344 C 57.851562 27.671875 57.816406 27.320312 57.75 26.972656 C 57.679688 26.625 57.578125 26.289062 57.441406 25.960938 C 57.308594 25.636719 57.140625 25.324219 56.945312 25.03125 C 56.746094 24.734375 56.523438 24.460938 56.273438 24.210938 C 56.023438 23.960938 55.753906 23.738281 55.457031 23.539062 C 55.164062 23.34375 54.855469 23.175781 54.527344 23.039062 C 54.199219 22.902344 53.863281 22.800781 53.515625 22.730469 C 53.167969 22.660156 52.816406 22.625 52.464844 22.625 Z M 52.464844 22.625 " fill-opacity="1" fill-rule="nonzero"/><path fill="#864e20" d="M 52.460938 22.625 C 52.101562 22.625 51.757812 22.695312 51.425781 22.832031 C 51.097656 22.96875 50.804688 23.164062 50.550781 23.417969 C 50.300781 23.671875 50.105469 23.964844 49.96875 24.292969 C 49.832031 24.625 49.761719 24.96875 49.761719 25.328125 C 49.761719 25.6875 49.832031 26.03125 49.96875 26.359375 C 50.105469 26.691406 50.300781 26.984375 50.554688 27.238281 C 50.808594 27.488281 51.101562 27.683594 51.429688 27.820312 C 51.761719 27.957031 52.105469 28.027344 52.464844 28.027344 C 52.824219 28.027344 53.167969 27.957031 53.5 27.820312 C 53.828125 27.683594 54.121094 27.488281 54.375 27.234375 C 54.628906 26.980469 54.820312 26.691406 54.960938 26.359375 C 55.097656 26.027344 55.164062 25.683594 55.164062 25.324219 C 55.164062 24.96875 55.097656 24.621094 54.957031 24.292969 C 54.820312 23.960938 54.625 23.667969 54.371094 23.414062 C 54.117188 23.160156 53.828125 22.964844 53.496094 22.828125 C 53.164062 22.691406 52.820312 22.625 52.460938 22.625 Z M 52.460938 22.625 " fill-opacity="1" fill-rule="nonzero"/><path fill="#e7253e" d="M 26.78125 77.179688 L 47.46875 77.179688 C 48.246094 77.179688 49.019531 77.21875 49.792969 77.296875 C 50.5625 77.371094 51.332031 77.484375 52.089844 77.636719 C 52.851562 77.789062 53.605469 77.976562 54.347656 78.203125 C 55.089844 78.425781 55.816406 78.6875 56.535156 78.984375 C 57.25 79.28125 57.953125 79.613281 58.636719 79.976562 C 59.320312 80.34375 59.984375 80.742188 60.628906 81.171875 C 61.273438 81.605469 61.898438 82.066406 62.496094 82.558594 C 63.097656 83.050781 63.671875 83.570312 64.21875 84.117188 C 64.765625 84.667969 65.289062 85.242188 65.78125 85.839844 C 66.273438 86.441406 66.734375 87.0625 67.164062 87.707031 C 67.59375 88.351562 67.992188 89.015625 68.359375 89.703125 C 68.726562 90.386719 69.054688 91.085938 69.351562 91.804688 C 69.648438 92.519531 69.910156 93.25 70.136719 93.992188 C 70.363281 94.734375 70.550781 95.484375 70.699219 96.246094 C 70.851562 97.007812 70.964844 97.773438 71.042969 98.546875 C 71.117188 99.316406 71.15625 100.089844 71.15625 100.867188 L 71.15625 121.558594 C 71.15625 122.332031 71.117188 123.109375 71.042969 123.878906 C 70.964844 124.652344 70.851562 125.417969 70.699219 126.179688 C 70.550781 126.941406 70.363281 127.691406 70.136719 128.433594 C 69.910156 129.175781 69.648438 129.90625 69.351562 130.621094 C 69.054688 131.339844 68.726562 132.039062 68.359375 132.722656 C 67.992188 133.40625 67.59375 134.070312 67.164062 134.71875 C 66.734375 135.363281 66.273438 135.984375 65.78125 136.585938 C 65.289062 137.183594 64.765625 137.757812 64.21875 138.304688 C 63.671875 138.855469 63.097656 139.375 62.496094 139.867188 C 61.898438 140.359375 61.273438 140.820312 60.628906 141.253906 C 59.984375 141.683594 59.320312 142.082031 58.636719 142.445312 C 57.953125 142.8125 57.25 143.144531 56.535156 143.441406 C 55.816406 143.738281 55.089844 144 54.347656 144.222656 C 53.605469 144.449219 52.851562 144.636719 52.089844 144.789062 C 51.332031 144.941406 50.5625 145.054688 49.792969 145.128906 C 49.019531 145.207031 48.246094 145.242188 47.46875 145.242188 L 26.78125 145.242188 C 26.003906 145.242188 25.230469 145.207031 24.457031 145.128906 C 23.6875 145.054688 22.917969 144.941406 22.160156 144.789062 C 21.398438 144.636719 20.644531 144.449219 19.902344 144.222656 C 19.160156 144 18.433594 143.738281 17.714844 143.441406 C 17 143.144531 16.296875 142.8125 15.613281 142.445312 C 14.929688 142.082031 14.265625 141.683594 13.621094 141.253906 C 12.976562 140.820312 12.351562 140.359375 11.753906 139.867188 C 11.152344 139.375 10.578125 138.855469 10.03125 138.304688 C 9.484375 137.757812 8.960938 137.183594 8.46875 136.585938 C 7.976562 135.984375 7.515625 135.363281 7.085938 134.71875 C 6.65625 134.070312 6.257812 133.40625 5.890625 132.722656 C 5.523438 132.039062 5.195312 131.339844 4.898438 130.621094 C 4.601562 129.90625 4.339844 129.175781 4.113281 128.433594 C 3.886719 127.691406 3.699219 126.941406 3.550781 126.179688 C 3.398438 125.417969 3.285156 124.652344 3.207031 123.878906 C 3.132812 123.109375 3.09375 122.332031 3.09375 121.558594 L 3.09375 100.867188 C 3.09375 100.089844 3.132812 99.316406 3.207031 98.546875 C 3.285156 97.773438 3.398438 97.007812 3.550781 96.246094 C 3.699219 95.484375 3.886719 94.734375 4.113281 93.992188 C 4.339844 93.25 4.601562 92.519531 4.898438 91.804688 C 5.195312 91.085938 5.523438 90.386719 5.890625 89.703125 C 6.257812 89.015625 6.65625 88.351562 7.085938 87.707031 C 7.515625 87.0625 7.976562 86.441406 8.46875 85.839844 C 8.960938 85.242188 9.484375 84.667969 10.03125 84.117188 C 10.578125 83.570312 11.152344 83.050781 11.753906 82.558594 C 12.351562 82.066406 12.976562 81.605469 13.621094 81.171875 C 14.265625 80.742188 14.929688 80.34375 15.613281 79.976562 C 16.296875 79.613281 17 79.28125 17.714844 78.984375 C 18.433594 78.6875 19.160156 78.425781 19.902344 78.203125 C 20.644531 77.976562 21.398438 77.789062 22.160156 77.636719 C 22.917969 77.484375 23.6875 77.371094 24.457031 77.296875 C 25.230469 77.21875 26.003906 77.179688 26.78125 77.179688 Z M 26.78125 77.179688 " fill-opacity="1" fill-rule="nonzero"/><path fill="#b51f36" d="M 71.15625 117.207031 C 70.109375 118.777344 68.96875 120.273438 67.734375 121.703125 C 66.5 123.128906 65.183594 124.472656 63.78125 125.734375 C 62.378906 127 60.902344 128.167969 59.355469 129.25 C 57.808594 130.328125 56.199219 131.304688 54.53125 132.183594 C 52.863281 133.0625 51.144531 133.835938 49.378906 134.5 C 47.613281 135.164062 45.816406 135.71875 43.980469 136.160156 C 42.144531 136.601562 40.292969 136.925781 38.417969 137.136719 C 36.542969 137.34375 34.660156 137.4375 32.773438 137.414062 C 15.628906 137.414062 12.472656 134.320312 4.492188 129.589844 C 4.902344 130.730469 5.398438 131.832031 5.980469 132.894531 C 6.558594 133.957031 7.214844 134.96875 7.953125 135.933594 C 8.6875 136.894531 9.492188 137.796875 10.367188 138.636719 C 11.238281 139.472656 12.171875 140.242188 13.164062 140.9375 C 14.152344 141.632812 15.191406 142.25 16.277344 142.789062 C 17.363281 143.324219 18.484375 143.777344 19.640625 144.140625 C 20.792969 144.507812 21.96875 144.78125 23.167969 144.964844 C 24.363281 145.152344 25.566406 145.242188 26.78125 145.242188 L 47.46875 145.242188 C 48.246094 145.242188 49.019531 145.207031 49.792969 145.128906 C 50.5625 145.054688 51.332031 144.941406 52.089844 144.789062 C 52.851562 144.636719 53.605469 144.449219 54.347656 144.222656 C 55.089844 144 55.816406 143.738281 56.535156 143.441406 C 57.25 143.144531 57.953125 142.8125 58.636719 142.445312 C 59.320312 142.082031 59.984375 141.683594 60.628906 141.253906 C 61.273438 140.820312 61.898438 140.359375 62.496094 139.867188 C 63.097656 139.375 63.671875 138.855469 64.21875 138.304688 C 64.765625 137.757812 65.289062 137.183594 65.78125 136.585938 C 66.273438 135.984375 66.734375 135.363281 67.164062 134.71875 C 67.59375 134.070312 67.992188 133.40625 68.359375 132.722656 C 68.726562 132.039062 69.054688 131.339844 69.351562 130.621094 C 69.648438 129.90625 69.910156 129.175781 70.136719 128.433594 C 70.363281 127.691406 70.550781 126.941406 70.699219 126.179688 C 70.851562 125.417969 70.964844 124.652344 71.042969 123.878906 C 71.117188 123.109375 71.15625 122.332031 71.15625 121.558594 Z M 71.15625 117.207031 " fill-opacity="1" fill-rule="nonzero"/><path fill="#90192d" d="M 29.589844 100.425781 C 25.214844 98.742188 21.15625 96.488281 17.417969 93.664062 C 17.175781 93.484375 16.90625 93.378906 16.609375 93.351562 C 16.308594 93.320312 16.027344 93.371094 15.753906 93.5 C 15.484375 93.632812 15.265625 93.824219 15.101562 94.074219 C 14.9375 94.324219 14.851562 94.601562 14.84375 94.902344 C 14.695312 99.800781 15.3125 108.773438 21.828125 108.773438 C 22.332031 108.828125 22.832031 108.835938 23.332031 108.796875 C 23.835938 108.757812 24.332031 108.671875 24.816406 108.542969 C 25.304688 108.410156 25.773438 108.234375 26.226562 108.015625 C 26.679688 107.796875 27.109375 107.535156 27.511719 107.234375 C 27.917969 106.9375 28.289062 106.601562 28.632812 106.230469 C 28.972656 105.859375 29.277344 105.460938 29.542969 105.035156 C 29.808594 104.605469 30.035156 104.15625 30.21875 103.6875 C 30.398438 103.21875 30.535156 102.734375 30.628906 102.242188 C 30.664062 102.050781 30.667969 101.863281 30.636719 101.675781 C 30.605469 101.484375 30.542969 101.304688 30.449219 101.140625 C 30.351562 100.972656 30.230469 100.828125 30.085938 100.707031 C 29.9375 100.582031 29.773438 100.488281 29.589844 100.425781 Z M 29.589844 100.425781 " fill-opacity="1" fill-rule="nonzero"/><path fill="#90192d" d="M 59.398438 94.910156 C 59.390625 94.613281 59.300781 94.335938 59.140625 94.085938 C 58.976562 93.835938 58.757812 93.644531 58.488281 93.515625 C 58.21875 93.382812 57.933594 93.332031 57.632812 93.363281 C 57.335938 93.390625 57.066406 93.496094 56.824219 93.675781 C 53.085938 96.5 49.027344 98.753906 44.652344 100.433594 C 44.472656 100.5 44.308594 100.59375 44.164062 100.714844 C 44.019531 100.835938 43.898438 100.980469 43.804688 101.148438 C 43.707031 101.3125 43.644531 101.488281 43.613281 101.675781 C 43.582031 101.867188 43.585938 102.054688 43.621094 102.242188 C 43.714844 102.734375 43.851562 103.21875 44.03125 103.6875 C 44.214844 104.15625 44.4375 104.601562 44.707031 105.03125 C 44.972656 105.457031 45.273438 105.855469 45.617188 106.226562 C 45.957031 106.59375 46.328125 106.929688 46.734375 107.230469 C 47.136719 107.53125 47.566406 107.789062 48.019531 108.007812 C 48.46875 108.230469 48.941406 108.40625 49.425781 108.535156 C 49.910156 108.667969 50.402344 108.753906 50.90625 108.792969 C 51.40625 108.832031 51.90625 108.824219 52.40625 108.769531 C 58.9375 108.78125 59.554688 99.808594 59.398438 94.910156 Z M 59.398438 94.910156 " fill-opacity="1" fill-rule="nonzero"/><path fill="#90192d" d="M 43.3125 117.207031 C 43.179688 117.203125 43.054688 117.175781 42.933594 117.125 C 42.816406 117.070312 42.707031 116.996094 42.617188 116.902344 C 42.527344 116.808594 42.457031 116.699219 42.410156 116.578125 C 42.363281 116.453125 42.339844 116.328125 42.34375 116.195312 C 42.320312 114.640625 41.804688 113.265625 40.796875 112.078125 C 40.304688 111.613281 39.738281 111.265625 39.097656 111.03125 C 38.460938 110.796875 37.804688 110.699219 37.125 110.738281 C 36.449219 110.699219 35.789062 110.796875 35.152344 111.027344 C 34.515625 111.257812 33.949219 111.605469 33.453125 112.070312 C 32.4375 113.257812 31.921875 114.636719 31.90625 116.199219 C 31.910156 116.472656 31.816406 116.707031 31.628906 116.90625 C 31.4375 117.101562 31.207031 117.203125 30.933594 117.207031 C 30.660156 117.210938 30.425781 117.121094 30.230469 116.929688 C 30.03125 116.742188 29.929688 116.511719 29.925781 116.238281 C 29.925781 115.214844 30.109375 114.226562 30.472656 113.273438 C 30.832031 112.320312 31.351562 111.457031 32.027344 110.691406 C 32.707031 110.03125 33.488281 109.53125 34.375 109.195312 C 35.261719 108.859375 36.179688 108.714844 37.125 108.757812 C 38.070312 108.714844 38.988281 108.859375 39.875 109.195312 C 40.757812 109.53125 41.542969 110.03125 42.21875 110.691406 C 42.894531 111.457031 43.414062 112.320312 43.773438 113.273438 C 44.136719 114.226562 44.320312 115.214844 44.320312 116.238281 C 44.3125 116.507812 44.210938 116.738281 44.015625 116.929688 C 43.820312 117.117188 43.585938 117.210938 43.3125 117.207031 Z M 43.3125 117.207031 " fill-opacity="1" fill-rule="nonzero"/><path fill="#f8de40" d="M 26.78125 151.269531 L 47.46875 151.269531 C 48.246094 151.269531 49.019531 151.308594 49.792969 151.382812 C 50.5625 151.457031 51.332031 151.574219 52.089844 151.722656 C 52.851562 151.875 53.605469 152.0625 54.347656 152.289062 C 55.089844 152.515625 55.816406 152.773438 56.535156 153.070312 C 57.25 153.367188 57.953125 153.699219 58.636719 154.066406 C 59.320312 154.429688 59.984375 154.828125 60.628906 155.261719 C 61.273438 155.691406 61.898438 156.152344 62.496094 156.644531 C 63.097656 157.136719 63.671875 157.65625 64.21875 158.207031 C 64.765625 158.753906 65.289062 159.328125 65.78125 159.929688 C 66.273438 160.527344 66.734375 161.152344 67.164062 161.796875 C 67.59375 162.441406 67.992188 163.105469 68.359375 163.789062 C 68.726562 164.472656 69.054688 165.171875 69.351562 165.890625 C 69.648438 166.605469 69.910156 167.335938 70.136719 168.078125 C 70.363281 168.820312 70.550781 169.574219 70.699219 170.332031 C 70.851562 171.09375 70.964844 171.859375 71.042969 172.632812 C 71.117188 173.40625 71.15625 174.179688 71.15625 174.953125 L 71.15625 195.644531 C 71.15625 196.421875 71.117188 197.195312 71.042969 197.96875 C 70.964844 198.738281 70.851562 199.503906 70.699219 200.265625 C 70.550781 201.027344 70.363281 201.777344 70.136719 202.519531 C 69.910156 203.261719 69.648438 203.992188 69.351562 204.710938 C 69.054688 205.425781 68.726562 206.125 68.359375 206.8125 C 67.992188 207.496094 67.59375 208.160156 67.164062 208.804688 C 66.734375 209.449219 66.273438 210.070312 65.78125 210.671875 C 65.289062 211.269531 64.765625 211.84375 64.21875 212.394531 C 63.671875 212.941406 63.097656 213.460938 62.496094 213.953125 C 61.898438 214.445312 61.273438 214.910156 60.628906 215.339844 C 59.984375 215.769531 59.320312 216.167969 58.636719 216.535156 C 57.953125 216.898438 57.25 217.230469 56.535156 217.527344 C 55.816406 217.824219 55.089844 218.085938 54.347656 218.3125 C 53.605469 218.535156 52.851562 218.726562 52.089844 218.875 C 51.332031 219.027344 50.5625 219.140625 49.792969 219.21875 C 49.019531 219.292969 48.246094 219.332031 47.46875 219.332031 L 26.78125 219.332031 C 26.003906 219.332031 25.230469 219.292969 24.457031 219.21875 C 23.6875 219.140625 22.917969 219.027344 22.160156 218.875 C 21.398438 218.726562 20.644531 218.535156 19.902344 218.3125 C 19.160156 218.085938 18.433594 217.824219 17.714844 217.527344 C 17 217.230469 16.296875 216.898438 15.613281 216.535156 C 14.929688 216.167969 14.265625 215.769531 13.621094 215.339844 C 12.976562 214.910156 12.351562 214.445312 11.753906 213.953125 C 11.152344 213.460938 10.578125 212.941406 10.03125 212.394531 C 9.484375 211.84375 8.960938 211.269531 8.46875 210.671875 C 7.976562 210.070312 7.515625 209.449219 7.085938 208.804688 C 6.65625 208.160156 6.257812 207.496094 5.890625 206.8125 C 5.523438 206.125 5.195312 205.425781 4.898438 204.710938 C 4.601562 203.992188 4.339844 203.261719 4.113281 202.519531 C 3.886719 201.777344 3.699219 201.027344 3.550781 200.265625 C 3.398438 199.503906 3.285156 198.738281 3.207031 197.96875 C 3.132812 197.195312 3.09375 196.421875 3.09375 195.644531 L 3.09375 174.953125 C 3.09375 174.179688 3.132812 173.40625 3.207031 172.632812 C 3.285156 171.859375 3.398438 171.09375 3.550781 170.332031 C 3.699219 169.574219 3.886719 168.820312 4.113281 168.078125 C 4.339844 167.335938 4.601562 166.605469 4.898438 165.890625 C 5.195312 165.171875 5.523438 164.472656 5.890625 163.789062 C 6.257812 163.105469 6.65625 162.441406 7.085938 161.796875 C 7.515625 161.152344 7.976562 160.527344 8.46875 159.929688 C 8.960938 159.328125 9.484375 158.753906 10.03125 158.207031 C 10.578125 157.65625 11.152344 157.136719 11.753906 156.644531 C 12.351562 156.152344 12.976562 155.691406 13.621094 155.261719 C 14.265625 154.828125 14.929688 154.429688 15.613281 154.066406 C 16.296875 153.699219 17 153.367188 17.714844 153.070312 C 18.433594 152.773438 19.160156 152.515625 19.902344 152.289062 C 20.644531 152.0625 21.398438 151.875 22.160156 151.722656 C 22.917969 151.574219 23.6875 151.457031 24.457031 151.382812 C 25.230469 151.308594 26.003906 151.269531 26.78125 151.269531 Z M 26.78125 151.269531 " fill-opacity="1" fill-rule="nonzero"/><path fill="#e7c930" d="M 71.15625 191.296875 C 70.109375 192.863281 68.96875 194.363281 67.734375 195.789062 C 66.5 197.214844 65.183594 198.5625 63.78125 199.824219 C 62.378906 201.085938 60.902344 202.257812 59.355469 203.335938 C 57.808594 204.414062 56.199219 205.394531 54.53125 206.273438 C 52.863281 207.152344 51.144531 207.921875 49.378906 208.589844 C 47.613281 209.253906 45.816406 209.804688 43.980469 210.246094 C 42.144531 210.6875 40.292969 211.011719 38.417969 211.222656 C 36.542969 211.433594 34.660156 211.523438 32.773438 211.5 C 15.628906 211.5 12.472656 208.40625 4.492188 203.675781 C 4.902344 204.816406 5.398438 205.917969 5.980469 206.980469 C 6.558594 208.042969 7.214844 209.058594 7.953125 210.019531 C 8.6875 210.984375 9.492188 211.882812 10.367188 212.722656 C 11.238281 213.5625 12.171875 214.328125 13.164062 215.027344 C 14.152344 215.722656 15.191406 216.339844 16.277344 216.875 C 17.363281 217.414062 18.484375 217.863281 19.640625 218.230469 C 20.792969 218.59375 21.96875 218.867188 23.167969 219.054688 C 24.363281 219.238281 25.566406 219.332031 26.78125 219.332031 L 47.46875 219.332031 C 48.246094 219.332031 49.019531 219.292969 49.792969 219.21875 C 50.5625 219.140625 51.332031 219.027344 52.089844 218.875 C 52.851562 218.726562 53.605469 218.535156 54.347656 218.3125 C 55.089844 218.085938 55.816406 217.824219 56.535156 217.527344 C 57.25 217.230469 57.953125 216.898438 58.636719 216.535156 C 59.320312 216.167969 59.984375 215.769531 60.628906 215.339844 C 61.273438 214.910156 61.898438 214.445312 62.496094 213.953125 C 63.097656 213.460938 63.671875 212.941406 64.21875 212.394531 C 64.765625 211.84375 65.289062 211.269531 65.78125 210.671875 C 66.273438 210.070312 66.734375 209.449219 67.164062 208.804688 C 67.59375 208.160156 67.992188 207.496094 68.359375 206.8125 C 68.726562 206.125 69.054688 205.425781 69.351562 204.710938 C 69.648438 203.992188 69.910156 203.261719 70.136719 202.519531 C 70.363281 201.777344 70.550781 201.027344 70.699219 200.265625 C 70.851562 199.503906 70.964844 198.738281 71.042969 197.96875 C 71.117188 197.195312 71.15625 196.421875 71.15625 195.644531 Z M 71.15625 191.296875 " fill-opacity="1" fill-rule="nonzero"/><path fill="#864e20" d="M 21.828125 170.800781 C 21.472656 170.800781 21.121094 170.832031 20.773438 170.902344 C 20.421875 170.972656 20.085938 171.074219 19.757812 171.210938 C 19.429688 171.34375 19.117188 171.511719 18.820312 171.707031 C 18.527344 171.90625 18.253906 172.128906 18 172.378906 C 17.75 172.628906 17.527344 172.902344 17.328125 173.199219 C 17.132812 173.492188 16.964844 173.804688 16.828125 174.132812 C 16.691406 174.460938 16.589844 174.796875 16.519531 175.148438 C 16.449219 175.496094 16.414062 175.847656 16.414062 176.203125 C 16.414062 176.554688 16.449219 176.90625 16.519531 177.257812 C 16.585938 177.605469 16.691406 177.941406 16.824219 178.269531 C 16.960938 178.597656 17.128906 178.910156 17.324219 179.207031 C 17.523438 179.5 17.746094 179.773438 17.996094 180.023438 C 18.25 180.277344 18.519531 180.5 18.816406 180.699219 C 19.113281 180.894531 19.421875 181.0625 19.75 181.199219 C 20.078125 181.332031 20.417969 181.4375 20.765625 181.503906 C 21.113281 181.574219 21.464844 181.609375 21.820312 181.609375 C 22.175781 181.609375 22.527344 181.574219 22.875 181.503906 C 23.222656 181.4375 23.5625 181.332031 23.890625 181.199219 C 24.21875 181.0625 24.527344 180.894531 24.824219 180.699219 C 25.117188 180.5 25.390625 180.277344 25.644531 180.023438 C 25.894531 179.773438 26.117188 179.5 26.316406 179.207031 C 26.511719 178.910156 26.679688 178.597656 26.816406 178.269531 C 26.949219 177.941406 27.050781 177.605469 27.121094 177.257812 C 27.191406 176.90625 27.226562 176.554688 27.226562 176.203125 C 27.226562 175.847656 27.191406 175.496094 27.121094 175.148438 C 27.050781 174.800781 26.949219 174.464844 26.8125 174.136719 C 26.675781 173.808594 26.511719 173.496094 26.3125 173.203125 C 26.117188 172.90625 25.894531 172.632812 25.644531 172.382812 C 25.390625 172.132812 25.121094 171.910156 24.824219 171.710938 C 24.53125 171.515625 24.21875 171.347656 23.890625 171.210938 C 23.566406 171.078125 23.226562 170.972656 22.878906 170.90625 C 22.53125 170.835938 22.179688 170.800781 21.828125 170.800781 Z M 21.828125 170.800781 " fill-opacity="1" fill-rule="nonzero"/><path fill="#864e20" d="M 52.464844 170.800781 C 52.109375 170.796875 51.757812 170.832031 51.410156 170.902344 C 51.058594 170.96875 50.722656 171.070312 50.394531 171.207031 C 50.0625 171.339844 49.753906 171.507812 49.457031 171.703125 C 49.160156 171.898438 48.886719 172.125 48.636719 172.375 C 48.382812 172.625 48.160156 172.898438 47.960938 173.191406 C 47.761719 173.488281 47.597656 173.796875 47.460938 174.125 C 47.324219 174.453125 47.21875 174.792969 47.148438 175.140625 C 47.078125 175.488281 47.042969 175.839844 47.042969 176.195312 C 47.042969 176.550781 47.078125 176.902344 47.144531 177.25 C 47.214844 177.597656 47.316406 177.9375 47.453125 178.265625 C 47.585938 178.59375 47.753906 178.90625 47.949219 179.203125 C 48.148438 179.496094 48.371094 179.769531 48.621094 180.023438 C 48.875 180.273438 49.144531 180.496094 49.441406 180.695312 C 49.734375 180.894531 50.046875 181.058594 50.375 181.195312 C 50.703125 181.332031 51.042969 181.433594 51.390625 181.503906 C 51.738281 181.574219 52.089844 181.609375 52.445312 181.609375 C 52.800781 181.609375 53.152344 181.574219 53.5 181.503906 C 53.847656 181.4375 54.1875 181.335938 54.515625 181.199219 C 54.84375 181.0625 55.15625 180.894531 55.449219 180.699219 C 55.746094 180.5 56.019531 180.277344 56.269531 180.027344 C 56.519531 179.773438 56.746094 179.5 56.941406 179.207031 C 57.140625 178.910156 57.304688 178.597656 57.441406 178.269531 C 57.578125 177.941406 57.679688 177.605469 57.75 177.257812 C 57.820312 176.910156 57.851562 176.554688 57.851562 176.203125 C 57.851562 175.847656 57.816406 175.496094 57.75 175.148438 C 57.679688 174.800781 57.578125 174.464844 57.441406 174.136719 C 57.308594 173.808594 57.140625 173.5 56.945312 173.203125 C 56.746094 172.910156 56.523438 172.636719 56.273438 172.386719 C 56.023438 172.136719 55.753906 171.914062 55.457031 171.714844 C 55.164062 171.519531 54.855469 171.351562 54.527344 171.214844 C 54.199219 171.078125 53.863281 170.976562 53.515625 170.90625 C 53.167969 170.835938 52.816406 170.800781 52.464844 170.800781 Z M 52.464844 170.800781 " fill-opacity="1" fill-rule="nonzero"/><path fill="#26a9e0" d="M 26.050781 191.242188 C 25.832031 189.722656 25.363281 188.289062 24.636719 186.9375 C 23.910156 185.585938 22.972656 184.398438 21.824219 183.382812 C 20.675781 184.402344 19.738281 185.585938 19.011719 186.9375 C 18.285156 188.289062 17.816406 189.722656 17.601562 191.242188 C 17.257812 195.808594 20.5 196.695312 21.824219 196.695312 C 23.148438 196.695312 26.394531 195.820312 26.050781 191.242188 Z M 26.050781 191.242188 " fill-opacity="1" fill-rule="nonzero"/><path fill="#864e20" d="M 44.898438 189.527344 C 43.679688 188.957031 42.414062 188.53125 41.105469 188.238281 C 39.792969 187.949219 38.46875 187.804688 37.125 187.804688 C 35.78125 187.804688 34.457031 187.949219 33.144531 188.238281 C 31.835938 188.53125 30.570312 188.957031 29.351562 189.527344 C 27.523438 190.667969 27.628906 187.378906 31.683594 186.511719 C 33.457031 185.96875 35.269531 185.644531 37.125 185.542969 C 38.980469 185.644531 40.792969 185.96875 42.566406 186.511719 C 46.621094 187.378906 46.714844 190.667969 44.898438 189.527344 Z M 44.898438 189.527344 " fill-opacity="1" fill-rule="nonzero"/><path fill="#e7c930" d="M 40.449219 192.320312 C 39.394531 191.828125 38.285156 191.582031 37.125 191.582031 C 35.964844 191.582031 34.855469 191.828125 33.800781 192.320312 C 33.019531 192.808594 33.066406 191.390625 34.796875 191.03125 C 35.558594 190.800781 36.332031 190.660156 37.125 190.617188 C 37.917969 190.660156 38.691406 190.800781 39.453125 191.03125 C 41.183594 191.402344 41.230469 192.808594 40.449219 192.320312 Z M 40.449219 192.320312 " fill-opacity="1" fill-rule="nonzero"/><path fill="#f8de40" d="M 26.78125 225.355469 L 47.46875 225.355469 C 48.246094 225.355469 49.019531 225.394531 49.792969 225.46875 C 50.5625 225.546875 51.332031 225.660156 52.089844 225.8125 C 52.851562 225.960938 53.605469 226.152344 54.347656 226.375 C 55.089844 226.601562 55.816406 226.863281 56.535156 227.160156 C 57.25 227.457031 57.953125 227.789062 58.636719 228.152344 C 59.320312 228.519531 59.984375 228.917969 60.628906 229.347656 C 61.273438 229.777344 61.898438 230.242188 62.496094 230.734375 C 63.097656 231.226562 63.671875 231.746094 64.21875 232.292969 C 64.765625 232.84375 65.289062 233.417969 65.78125 234.015625 C 66.273438 234.617188 66.734375 235.238281 67.164062 235.882812 C 67.59375 236.527344 67.992188 237.191406 68.359375 237.875 C 68.726562 238.5625 69.054688 239.261719 69.351562 239.976562 C 69.648438 240.695312 69.910156 241.425781 70.136719 242.167969 C 70.363281 242.910156 70.550781 243.660156 70.699219 244.421875 C 70.851562 245.183594 70.964844 245.949219 71.042969 246.71875 C 71.117188 247.492188 71.15625 248.265625 71.15625 249.042969 L 71.15625 269.734375 C 71.15625 270.507812 71.117188 271.28125 71.042969 272.054688 C 70.964844 272.828125 70.851562 273.59375 70.699219 274.355469 C 70.550781 275.113281 70.363281 275.867188 70.136719 276.609375 C 69.910156 277.351562 69.648438 278.082031 69.351562 278.796875 C 69.054688 279.515625 68.726562 280.214844 68.359375 280.898438 C 67.992188 281.582031 67.59375 282.246094 67.164062 282.890625 C 66.734375 283.539062 66.273438 284.160156 65.78125 284.757812 C 65.289062 285.359375 64.765625 285.933594 64.21875 286.480469 C 63.671875 287.03125 63.097656 287.550781 62.496094 288.042969 C 61.898438 288.535156 61.273438 288.996094 60.628906 289.425781 C 59.984375 289.859375 59.320312 290.257812 58.636719 290.621094 C 57.953125 290.988281 57.25 291.320312 56.535156 291.617188 C 55.816406 291.914062 55.089844 292.171875 54.347656 292.398438 C 53.605469 292.625 52.851562 292.8125 52.089844 292.964844 C 51.332031 293.113281 50.5625 293.230469 49.792969 293.304688 C 49.019531 293.378906 48.246094 293.417969 47.46875 293.417969 L 26.78125 293.417969 C 26.003906 293.417969 25.230469 293.378906 24.457031 293.304688 C 23.6875 293.230469 22.917969 293.113281 22.160156 292.964844 C 21.398438 292.8125 20.644531 292.625 19.902344 292.398438 C 19.160156 292.171875 18.433594 291.914062 17.714844 291.617188 C 17 291.320312 16.296875 290.988281 15.613281 290.621094 C 14.929688 290.257812 14.265625 289.859375 13.621094 289.425781 C 12.976562 288.996094 12.351562 288.535156 11.753906 288.042969 C 11.152344 287.550781 10.578125 287.03125 10.03125 286.480469 C 9.484375 285.933594 8.960938 285.359375 8.46875 284.757812 C 7.976562 284.160156 7.515625 283.539062 7.085938 282.890625 C 6.65625 282.246094 6.257812 281.582031 5.890625 280.898438 C 5.523438 280.214844 5.195312 279.515625 4.898438 278.796875 C 4.601562 278.082031 4.339844 277.351562 4.113281 276.609375 C 3.886719 275.867188 3.699219 275.113281 3.550781 274.355469 C 3.398438 273.59375 3.285156 272.828125 3.207031 272.054688 C 3.132812 271.28125 3.09375 270.507812 3.09375 269.734375 L 3.09375 249.042969 C 3.09375 248.265625 3.132812 247.492188 3.207031 246.71875 C 3.285156 245.949219 3.398438 245.183594 3.550781 244.421875 C 3.699219 243.660156 3.886719 242.910156 4.113281 242.167969 C 4.339844 241.425781 4.601562 240.695312 4.898438 239.976562 C 5.195312 239.261719 5.523438 238.5625 5.890625 237.875 C 6.257812 237.191406 6.65625 236.527344 7.085938 235.882812 C 7.515625 235.238281 7.976562 234.617188 8.46875 234.015625 C 8.960938 233.417969 9.484375 232.84375 10.03125 232.292969 C 10.578125 231.746094 11.152344 231.226562 11.753906 230.734375 C 12.351562 230.242188 12.976562 229.777344 13.621094 229.347656 C 14.265625 228.917969 14.929688 228.519531 15.613281 228.152344 C 16.296875 227.789062 17 227.457031 17.714844 227.160156 C 18.433594 226.863281 19.160156 226.601562 19.902344 226.375 C 20.644531 226.152344 21.398438 225.960938 22.160156 225.8125 C 22.917969 225.660156 23.6875 225.546875 24.457031 225.46875 C 25.230469 225.394531 26.003906 225.355469 26.78125 225.355469 Z M 26.78125 225.355469 " fill-opacity="1" fill-rule="nonzero"/><path fill="#864e20" d="M 21.828125 244.886719 C 21.472656 244.886719 21.121094 244.921875 20.773438 244.988281 C 20.421875 245.058594 20.085938 245.160156 19.757812 245.296875 C 19.429688 245.433594 19.117188 245.597656 18.820312 245.796875 C 18.527344 245.992188 18.253906 246.214844 18 246.46875 C 17.75 246.71875 17.527344 246.992188 17.328125 247.285156 C 17.132812 247.582031 16.964844 247.890625 16.828125 248.21875 C 16.691406 248.546875 16.589844 248.886719 16.519531 249.234375 C 16.449219 249.582031 16.414062 249.933594 16.414062 250.289062 C 16.414062 250.644531 16.449219 250.996094 16.519531 251.34375 C 16.585938 251.691406 16.691406 252.03125 16.824219 252.359375 C 16.960938 252.6875 17.128906 252.996094 17.324219 253.292969 C 17.523438 253.589844 17.746094 253.863281 17.996094 254.113281 C 18.25 254.363281 18.519531 254.589844 18.816406 254.785156 C 19.113281 254.984375 19.421875 255.148438 19.75 255.285156 C 20.078125 255.421875 20.417969 255.523438 20.765625 255.59375 C 21.113281 255.660156 21.464844 255.695312 21.820312 255.695312 C 22.175781 255.695312 22.527344 255.660156 22.875 255.59375 C 23.222656 255.523438 23.5625 255.421875 23.890625 255.285156 C 24.21875 255.148438 24.527344 254.984375 24.824219 254.785156 C 25.117188 254.589844 25.390625 254.363281 25.644531 254.113281 C 25.894531 253.863281 26.117188 253.589844 26.316406 253.292969 C 26.511719 252.996094 26.679688 252.6875 26.816406 252.359375 C 26.949219 252.03125 27.050781 251.691406 27.121094 251.34375 C 27.191406 250.996094 27.226562 250.644531 27.226562 250.289062 C 27.226562 249.933594 27.191406 249.582031 27.121094 249.234375 C 27.050781 248.886719 26.949219 248.550781 26.8125 248.222656 C 26.675781 247.894531 26.511719 247.585938 26.3125 247.289062 C 26.117188 246.996094 25.894531 246.722656 25.644531 246.472656 C 25.390625 246.21875 25.121094 245.996094 24.824219 245.800781 C 24.53125 245.601562 24.21875 245.4375 23.890625 245.300781 C 23.566406 245.164062 23.226562 245.0625 22.878906 244.992188 C 22.53125 244.921875 22.179688 244.886719 21.828125 244.886719 Z M 21.828125 244.886719 " fill-opacity="1" fill-rule="nonzero"/><path fill="#864e20" d="M 52.464844 244.886719 C 52.109375 244.886719 51.757812 244.917969 51.410156 244.988281 C 51.058594 245.054688 50.722656 245.15625 50.394531 245.292969 C 50.0625 245.429688 49.753906 245.59375 49.457031 245.789062 C 49.160156 245.988281 48.886719 246.210938 48.636719 246.460938 C 48.382812 246.710938 48.160156 246.984375 47.960938 247.28125 C 47.761719 247.574219 47.597656 247.886719 47.460938 248.214844 C 47.324219 248.542969 47.21875 248.878906 47.148438 249.226562 C 47.078125 249.574219 47.042969 249.925781 47.042969 250.28125 C 47.042969 250.636719 47.078125 250.988281 47.144531 251.339844 C 47.214844 251.6875 47.316406 252.023438 47.453125 252.351562 C 47.585938 252.679688 47.753906 252.992188 47.949219 253.289062 C 48.148438 253.585938 48.371094 253.859375 48.621094 254.109375 C 48.875 254.359375 49.144531 254.585938 49.441406 254.78125 C 49.734375 254.980469 50.046875 255.148438 50.375 255.285156 C 50.703125 255.417969 51.042969 255.523438 51.390625 255.59375 C 51.738281 255.660156 52.089844 255.695312 52.445312 255.695312 C 52.800781 255.695312 53.152344 255.664062 53.5 255.59375 C 53.847656 255.523438 54.1875 255.421875 54.515625 255.285156 C 54.84375 255.148438 55.15625 254.984375 55.449219 254.785156 C 55.746094 254.589844 56.019531 254.363281 56.269531 254.113281 C 56.519531 253.863281 56.746094 253.589844 56.941406 253.292969 C 57.140625 253 57.304688 252.6875 57.441406 252.359375 C 57.578125 252.03125 57.679688 251.691406 57.75 251.34375 C 57.820312 250.996094 57.851562 250.644531 57.851562 250.289062 C 57.851562 249.933594 57.816406 249.585938 57.75 249.238281 C 57.679688 248.890625 57.578125 248.550781 57.441406 248.226562 C 57.308594 247.898438 57.140625 247.585938 56.945312 247.292969 C 56.746094 246.996094 56.523438 246.726562 56.273438 246.472656 C 56.023438 246.222656 55.753906 246 55.457031 245.804688 C 55.164062 245.605469 54.855469 245.4375 54.527344 245.300781 C 54.199219 245.167969 53.863281 245.0625 53.515625 244.992188 C 53.167969 244.921875 52.816406 244.886719 52.464844 244.886719 Z M 52.464844 244.886719 " fill-opacity="1" fill-rule="nonzero"/><path fill="#e7c930" d="M 71.15625 265.382812 C 70.109375 266.953125 68.96875 268.449219 67.734375 269.875 C 66.5 271.304688 65.183594 272.648438 63.78125 273.910156 C 62.378906 275.171875 60.902344 276.34375 59.355469 277.421875 C 57.808594 278.503906 56.199219 279.480469 54.53125 280.359375 C 52.863281 281.238281 51.144531 282.011719 49.378906 282.675781 C 47.613281 283.339844 45.816406 283.894531 43.980469 284.335938 C 42.144531 284.773438 40.292969 285.101562 38.417969 285.308594 C 36.542969 285.519531 34.660156 285.613281 32.773438 285.589844 C 15.628906 285.589844 12.472656 282.496094 4.492188 277.765625 C 4.902344 278.902344 5.398438 280.003906 5.980469 281.070312 C 6.558594 282.132812 7.214844 283.144531 7.953125 284.109375 C 8.6875 285.070312 9.492188 285.972656 10.367188 286.808594 C 11.238281 287.648438 12.171875 288.417969 13.164062 289.113281 C 14.152344 289.808594 15.191406 290.425781 16.277344 290.964844 C 17.363281 291.5 18.484375 291.949219 19.640625 292.316406 C 20.792969 292.679688 21.96875 292.957031 23.167969 293.140625 C 24.363281 293.324219 25.566406 293.417969 26.78125 293.417969 L 47.46875 293.417969 C 48.246094 293.417969 49.019531 293.378906 49.792969 293.304688 C 50.5625 293.230469 51.332031 293.113281 52.089844 292.964844 C 52.851562 292.8125 53.605469 292.625 54.347656 292.398438 C 55.089844 292.171875 55.816406 291.914062 56.535156 291.617188 C 57.25 291.320312 57.953125 290.988281 58.636719 290.621094 C 59.320312 290.257812 59.984375 289.859375 60.628906 289.425781 C 61.273438 288.996094 61.898438 288.535156 62.496094 288.042969 C 63.097656 287.550781 63.671875 287.03125 64.21875 286.480469 C 64.765625 285.933594 65.289062 285.359375 65.78125 284.757812 C 66.273438 284.160156 66.734375 283.539062 67.164062 282.890625 C 67.59375 282.246094 67.992188 281.582031 68.359375 280.898438 C 68.726562 280.214844 69.054688 279.515625 69.351562 278.796875 C 69.648438 278.082031 69.910156 277.351562 70.136719 276.609375 C 70.363281 275.867188 70.550781 275.113281 70.699219 274.355469 C 70.851562 273.59375 70.964844 272.828125 71.042969 272.054688 C 71.117188 271.28125 71.15625 270.507812 71.15625 269.734375 Z M 71.15625 265.382812 " fill-opacity="1" fill-rule="nonzero"/><path fill="#864e20" d="M 42.414062 262.675781 L 31.835938 262.675781 C 30.945312 262.675781 30.226562 263.105469 30.226562 263.640625 C 30.226562 264.175781 30.945312 264.605469 31.835938 264.605469 L 42.414062 264.605469 C 43.304688 264.605469 44.023438 264.175781 44.023438 263.640625 C 44.023438 263.105469 43.3125 262.675781 42.414062 262.675781 Z M 42.414062 262.675781 " fill-opacity="1" fill-rule="nonzero"/><path fill="#f8de40" d="M 26.78125 299.445312 L 47.46875 299.445312 C 48.246094 299.445312 49.019531 299.480469 49.792969 299.558594 C 50.5625 299.632812 51.332031 299.746094 52.089844 299.898438 C 52.851562 300.050781 53.605469 300.238281 54.347656 300.464844 C 55.089844 300.6875 55.816406 300.949219 56.535156 301.246094 C 57.25 301.542969 57.953125 301.875 58.636719 302.242188 C 59.320312 302.605469 59.984375 303.003906 60.628906 303.4375 C 61.273438 303.867188 61.898438 304.328125 62.496094 304.820312 C 63.097656 305.3125 63.671875 305.832031 64.21875 306.382812 C 64.765625 306.929688 65.289062 307.503906 65.78125 308.105469 C 66.273438 308.703125 66.734375 309.324219 67.164062 309.96875 C 67.59375 310.617188 67.992188 311.28125 68.359375 311.964844 C 68.726562 312.648438 69.054688 313.347656 69.351562 314.066406 C 69.648438 314.78125 69.910156 315.511719 70.136719 316.253906 C 70.363281 316.996094 70.550781 317.746094 70.699219 318.507812 C 70.851562 319.269531 70.964844 320.035156 71.042969 320.808594 C 71.117188 321.578125 71.15625 322.355469 71.15625 323.128906 L 71.15625 343.820312 C 71.15625 344.597656 71.117188 345.371094 71.042969 346.140625 C 70.964844 346.914062 70.851562 347.679688 70.699219 348.441406 C 70.550781 349.203125 70.363281 349.953125 70.136719 350.695312 C 69.910156 351.4375 69.648438 352.167969 69.351562 352.882812 C 69.054688 353.601562 68.726562 354.300781 68.359375 354.984375 C 67.992188 355.671875 67.59375 356.335938 67.164062 356.980469 C 66.734375 357.625 66.273438 358.246094 65.78125 358.847656 C 65.289062 359.445312 64.765625 360.019531 64.21875 360.570312 C 63.671875 361.117188 63.097656 361.636719 62.496094 362.128906 C 61.898438 362.621094 61.273438 363.082031 60.628906 363.515625 C 59.984375 363.945312 59.320312 364.34375 58.636719 364.710938 C 57.953125 365.074219 57.25 365.40625 56.535156 365.703125 C 55.816406 366 55.089844 366.261719 54.347656 366.488281 C 53.605469 366.710938 52.851562 366.898438 52.089844 367.050781 C 51.332031 367.203125 50.5625 367.316406 49.792969 367.390625 C 49.019531 367.46875 48.246094 367.507812 47.46875 367.507812 L 26.78125 367.507812 C 26.003906 367.507812 25.230469 367.46875 24.457031 367.390625 C 23.6875 367.316406 22.917969 367.203125 22.160156 367.050781 C 21.398438 366.898438 20.644531 366.710938 19.902344 366.488281 C 19.160156 366.261719 18.433594 366 17.714844 365.703125 C 17 365.40625 16.296875 365.074219 15.613281 364.710938 C 14.929688 364.34375 14.265625 363.945312 13.621094 363.515625 C 12.976562 363.082031 12.351562 362.621094 11.753906 362.128906 C 11.152344 361.636719 10.578125 361.117188 10.03125 360.570312 C 9.484375 360.019531 8.960938 359.445312 8.46875 358.847656 C 7.976562 358.246094 7.515625 357.625 7.085938 356.980469 C 6.65625 356.335938 6.257812 355.671875 5.890625 354.984375 C 5.523438 354.300781 5.195312 353.601562 4.898438 352.882812 C 4.601562 352.167969 4.339844 351.4375 4.113281 350.695312 C 3.886719 349.953125 3.699219 349.203125 3.550781 348.441406 C 3.398438 347.679688 3.285156 346.914062 3.207031 346.140625 C 3.132812 345.371094 3.09375 344.597656 3.09375 343.820312 L 3.09375 323.128906 C 3.09375 322.355469 3.132812 321.578125 3.207031 320.808594 C 3.285156 320.035156 3.398438 319.269531 3.550781 318.507812 C 3.699219 317.746094 3.886719 316.996094 4.113281 316.253906 C 4.339844 315.511719 4.601562 314.78125 4.898438 314.066406 C 5.195312 313.347656 5.523438 312.648438 5.890625 311.964844 C 6.257812 311.28125 6.65625 310.617188 7.085938 309.96875 C 7.515625 309.324219 7.976562 308.703125 8.46875 308.105469 C 8.960938 307.503906 9.484375 306.929688 10.03125 306.382812 C 10.578125 305.832031 11.152344 305.3125 11.753906 304.820312 C 12.351562 304.328125 12.976562 303.867188 13.621094 303.4375 C 14.265625 303.003906 14.929688 302.605469 15.613281 302.242188 C 16.296875 301.875 17 301.542969 17.714844 301.246094 C 18.433594 300.949219 19.160156 300.6875 19.902344 300.464844 C 20.644531 300.238281 21.398438 300.050781 22.160156 299.898438 C 22.917969 299.746094 23.6875 299.632812 24.457031 299.558594 C 25.230469 299.480469 26.003906 299.445312 26.78125 299.445312 Z M 26.78125 299.445312 " fill-opacity="1" fill-rule="nonzero"/><path fill="#864e20" d="M 27.554688 326.804688 C 27.550781 327.078125 27.417969 327.25 27.15625 327.332031 C 26.894531 327.410156 26.6875 327.335938 26.53125 327.113281 C 26.0625 326.410156 25.476562 325.824219 24.773438 325.359375 C 24.332031 325.070312 23.859375 324.847656 23.355469 324.695312 C 22.851562 324.542969 22.335938 324.464844 21.808594 324.464844 C 21.28125 324.464844 20.765625 324.542969 20.261719 324.695312 C 19.757812 324.847656 19.285156 325.070312 18.847656 325.359375 C 18.136719 325.828125 17.550781 326.414062 17.082031 327.121094 C 16.925781 327.34375 16.714844 327.414062 16.457031 327.335938 C 16.195312 327.257812 16.0625 327.082031 16.054688 326.8125 C 16.042969 325.632812 16.398438 324.574219 17.128906 323.644531 C 17.40625 323.292969 17.722656 322.972656 18.070312 322.691406 C 18.421875 322.410156 18.800781 322.171875 19.207031 321.972656 C 19.613281 321.777344 20.035156 321.628906 20.472656 321.527344 C 20.914062 321.425781 21.355469 321.375 21.808594 321.375 C 22.257812 321.375 22.703125 321.425781 23.140625 321.527344 C 23.582031 321.628906 24.003906 321.777344 24.410156 321.972656 C 24.8125 322.171875 25.191406 322.410156 25.542969 322.691406 C 25.894531 322.972656 26.210938 323.292969 26.488281 323.644531 C 27.210938 324.574219 27.566406 325.628906 27.554688 326.804688 Z M 27.554688 326.804688 " fill-opacity="1" fill-rule="nonzero"/><path fill="#864e20" d="M 58.195312 326.804688 C 58.1875 327.078125 58.054688 327.25 57.792969 327.332031 C 57.535156 327.410156 57.324219 327.335938 57.167969 327.113281 C 56.703125 326.410156 56.117188 325.828125 55.414062 325.359375 C 54.972656 325.070312 54.5 324.847656 53.996094 324.695312 C 53.492188 324.542969 52.976562 324.464844 52.449219 324.464844 C 51.921875 324.464844 51.40625 324.542969 50.902344 324.695312 C 50.394531 324.847656 49.921875 325.070312 49.484375 325.359375 C 48.777344 325.828125 48.1875 326.414062 47.71875 327.121094 C 47.5625 327.34375 47.355469 327.414062 47.09375 327.335938 C 46.832031 327.257812 46.699219 327.082031 46.695312 326.8125 C 46.679688 325.632812 47.039062 324.574219 47.765625 323.644531 C 48.042969 323.292969 48.359375 322.972656 48.710938 322.691406 C 49.0625 322.410156 49.4375 322.171875 49.84375 321.972656 C 50.25 321.777344 50.671875 321.628906 51.109375 321.527344 C 51.550781 321.425781 51.996094 321.375 52.445312 321.375 C 52.894531 321.375 53.339844 321.425781 53.78125 321.527344 C 54.21875 321.628906 54.640625 321.777344 55.046875 321.972656 C 55.453125 322.171875 55.828125 322.410156 56.179688 322.691406 C 56.53125 322.972656 56.847656 323.292969 57.125 323.644531 C 57.847656 324.574219 58.203125 325.628906 58.195312 326.804688 Z M 58.195312 326.804688 " fill-opacity="1" fill-rule="nonzero"/><path fill="#e7c930" d="M 71.15625 339.472656 C 70.109375 341.039062 68.96875 342.539062 67.734375 343.964844 C 66.5 345.390625 65.183594 346.734375 63.78125 348 C 62.378906 349.261719 60.902344 350.433594 59.355469 351.511719 C 57.808594 352.589844 56.199219 353.570312 54.53125 354.449219 C 52.863281 355.328125 51.144531 356.097656 49.378906 356.761719 C 47.613281 357.429688 45.816406 357.980469 43.980469 358.421875 C 42.144531 358.863281 40.292969 359.1875 38.417969 359.398438 C 36.542969 359.609375 34.660156 359.699219 32.773438 359.675781 C 15.628906 359.675781 12.472656 356.582031 4.492188 351.851562 C 4.902344 352.992188 5.398438 354.09375 5.980469 355.15625 C 6.558594 356.21875 7.214844 357.234375 7.953125 358.195312 C 8.6875 359.15625 9.492188 360.058594 10.367188 360.898438 C 11.238281 361.738281 12.171875 362.503906 13.164062 363.199219 C 14.152344 363.898438 15.191406 364.511719 16.277344 365.050781 C 17.363281 365.585938 18.484375 366.039062 19.640625 366.402344 C 20.792969 366.769531 21.96875 367.042969 23.167969 367.230469 C 24.363281 367.414062 25.566406 367.507812 26.78125 367.507812 L 47.46875 367.507812 C 48.246094 367.507812 49.019531 367.46875 49.792969 367.390625 C 50.5625 367.316406 51.332031 367.203125 52.089844 367.050781 C 52.851562 366.898438 53.605469 366.710938 54.347656 366.488281 C 55.089844 366.261719 55.816406 366 56.535156 365.703125 C 57.25 365.40625 57.953125 365.074219 58.636719 364.710938 C 59.320312 364.34375 59.984375 363.945312 60.628906 363.515625 C 61.273438 363.082031 61.898438 362.621094 62.496094 362.128906 C 63.097656 361.636719 63.671875 361.117188 64.21875 360.570312 C 64.765625 360.019531 65.289062 359.445312 65.78125 358.847656 C 66.273438 358.246094 66.734375 357.625 67.164062 356.980469 C 67.59375 356.335938 67.992188 355.671875 68.359375 354.984375 C 68.726562 354.300781 69.054688 353.601562 69.351562 352.882812 C 69.648438 352.167969 69.910156 351.4375 70.136719 350.695312 C 70.363281 349.953125 70.550781 349.203125 70.699219 348.441406 C 70.851562 347.679688 70.964844 346.914062 71.042969 346.140625 C 71.117188 345.371094 71.15625 344.597656 71.15625 343.820312 Z M 71.15625 339.472656 " fill-opacity="1" fill-rule="nonzero"/><path fill="#864e20" d="M 41.171875 337.730469 C 41.59375 337.382812 41.921875 336.964844 42.15625 336.472656 C 42.390625 335.984375 42.511719 335.464844 42.515625 334.917969 C 42.484375 334.492188 42.390625 334.078125 42.230469 333.675781 C 42.074219 333.277344 41.855469 332.910156 41.585938 332.578125 C 41.3125 332.246094 40.996094 331.960938 40.632812 331.726562 C 40.273438 331.496094 39.886719 331.320312 39.46875 331.207031 C 39.339844 331.15625 39.203125 331.136719 39.0625 331.148438 C 38.921875 331.15625 38.789062 331.195312 38.667969 331.265625 C 38.542969 331.332031 38.441406 331.421875 38.355469 331.535156 C 38.273438 331.648438 38.21875 331.773438 38.1875 331.914062 L 38.1875 331.929688 C 38.140625 332.164062 38.175781 332.382812 38.292969 332.59375 C 38.410156 332.800781 38.582031 332.945312 38.808594 333.027344 C 39.472656 333.277344 40.585938 333.859375 40.585938 334.921875 C 40.585938 336.238281 39.039062 336.804688 38.992188 336.828125 C 38.792969 336.898438 38.636719 337.019531 38.519531 337.191406 C 38.398438 337.359375 38.339844 337.550781 38.339844 337.757812 C 38.347656 337.96875 38.414062 338.15625 38.542969 338.324219 C 38.671875 338.492188 38.835938 338.601562 39.039062 338.660156 C 39.5 338.804688 39.871094 339.070312 40.15625 339.460938 C 40.441406 339.847656 40.585938 340.28125 40.585938 340.765625 C 40.585938 341.59375 39.453125 342.164062 38.78125 342.433594 C 38.589844 342.507812 38.441406 342.628906 38.332031 342.804688 L 38.023438 342.878906 L 38.210938 343.628906 C 38.25 343.757812 38.3125 343.875 38.398438 343.976562 C 38.488281 344.078125 38.589844 344.160156 38.710938 344.21875 C 38.832031 344.277344 38.960938 344.308594 39.097656 344.3125 C 39.230469 344.320312 39.359375 344.296875 39.484375 344.246094 C 40.617188 343.796875 42.515625 342.742188 42.515625 340.773438 C 42.527344 340.191406 42.414062 339.636719 42.179688 339.105469 C 41.945312 338.570312 41.609375 338.113281 41.171875 337.730469 Z M 41.171875 337.730469 " fill-opacity="1" fill-rule="nonzero"/><path fill="#f8de40" d="M 26.78125 373.53125 L 47.46875 373.53125 C 48.246094 373.53125 49.019531 373.570312 49.792969 373.644531 C 50.5625 373.722656 51.332031 373.835938 52.089844 373.988281 C 52.851562 374.136719 53.605469 374.324219 54.347656 374.550781 C 55.089844 374.777344 55.816406 375.039062 56.535156 375.335938 C 57.25 375.632812 57.953125 375.960938 58.636719 376.328125 C 59.320312 376.695312 59.984375 377.09375 60.628906 377.523438 C 61.273438 377.953125 61.898438 378.414062 62.496094 378.90625 C 63.097656 379.398438 63.671875 379.921875 64.21875 380.46875 C 64.765625 381.015625 65.289062 381.589844 65.78125 382.191406 C 66.273438 382.789062 66.734375 383.414062 67.164062 384.058594 C 67.59375 384.703125 67.992188 385.367188 68.359375 386.050781 C 68.726562 386.734375 69.054688 387.4375 69.351562 388.152344 C 69.648438 388.871094 69.910156 389.597656 70.136719 390.339844 C 70.363281 391.082031 70.550781 391.835938 70.699219 392.597656 C 70.851562 393.355469 70.964844 394.125 71.042969 394.894531 C 71.117188 395.667969 71.15625 396.441406 71.15625 397.21875 L 71.15625 417.90625 C 71.15625 418.683594 71.117188 419.457031 71.042969 420.230469 C 70.964844 421 70.851562 421.769531 70.699219 422.527344 C 70.550781 423.289062 70.363281 424.042969 70.136719 424.785156 C 69.910156 425.527344 69.648438 426.253906 69.351562 426.972656 C 69.054688 427.6875 68.726562 428.390625 68.359375 429.074219 C 67.992188 429.757812 67.59375 430.421875 67.164062 431.066406 C 66.734375 431.710938 66.273438 432.335938 65.78125 432.933594 C 65.289062 433.535156 64.765625 434.109375 64.21875 434.65625 C 63.671875 435.203125 63.097656 435.726562 62.496094 436.21875 C 61.898438 436.710938 61.273438 437.171875 60.628906 437.601562 C 59.984375 438.03125 59.320312 438.429688 58.636719 438.796875 C 57.953125 439.164062 57.25 439.492188 56.535156 439.789062 C 55.816406 440.085938 55.089844 440.347656 54.347656 440.574219 C 53.605469 440.800781 52.851562 440.988281 52.089844 441.140625 C 51.332031 441.289062 50.5625 441.402344 49.792969 441.480469 C 49.019531 441.554688 48.246094 441.59375 47.46875 441.59375 L 26.78125 441.59375 C 26.003906 441.59375 25.230469 441.554688 24.457031 441.480469 C 23.6875 441.402344 22.917969 441.289062 22.160156 441.140625 C 21.398438 440.988281 20.644531 440.800781 19.902344 440.574219 C 19.160156 440.347656 18.433594 440.085938 17.714844 439.789062 C 17 439.492188 16.296875 439.164062 15.613281 438.796875 C 14.929688 438.429688 14.265625 438.03125 13.621094 437.601562 C 12.976562 437.171875 12.351562 436.710938 11.753906 436.21875 C 11.152344 435.726562 10.578125 435.203125 10.03125 434.65625 C 9.484375 434.109375 8.960938 433.535156 8.46875 432.933594 C 7.976562 432.335938 7.515625 431.710938 7.085938 431.066406 C 6.65625 430.421875 6.257812 429.757812 5.890625 429.074219 C 5.523438 428.390625 5.195312 427.6875 4.898438 426.972656 C 4.601562 426.253906 4.339844 425.527344 4.113281 424.785156 C 3.886719 424.042969 3.699219 423.289062 3.550781 422.527344 C 3.398438 421.769531 3.285156 421 3.207031 420.230469 C 3.132812 419.457031 3.09375 418.683594 3.09375 417.90625 L 3.09375 397.21875 C 3.09375 396.441406 3.132812 395.667969 3.207031 394.894531 C 3.285156 394.125 3.398438 393.355469 3.550781 392.597656 C 3.699219 391.835938 3.886719 391.082031 4.113281 390.339844 C 4.339844 389.597656 4.601562 388.871094 4.898438 388.152344 C 5.195312 387.4375 5.523438 386.734375 5.890625 386.050781 C 6.257812 385.367188 6.65625 384.703125 7.085938 384.058594 C 7.515625 383.414062 7.976562 382.789062 8.46875 382.191406 C 8.960938 381.589844 9.484375 381.015625 10.03125 380.46875 C 10.578125 379.921875 11.152344 379.398438 11.753906 378.90625 C 12.351562 378.414062 12.976562 377.953125 13.621094 377.523438 C 14.265625 377.09375 14.929688 376.695312 15.613281 376.328125 C 16.296875 375.960938 17 375.632812 17.714844 375.335938 C 18.433594 375.039062 19.160156 374.777344 19.902344 374.550781 C 20.644531 374.324219 21.398438 374.136719 22.160156 373.988281 C 22.917969 373.835938 23.6875 373.722656 24.457031 373.644531 C 25.230469 373.570312 26.003906 373.53125 26.78125 373.53125 Z M 26.78125 373.53125 " fill-opacity="1" fill-rule="nonzero"/><path fill="#e7c930" d="M 71.15625 413.558594 C 70.109375 415.128906 68.96875 416.625 67.734375 418.050781 C 66.5 419.476562 65.183594 420.824219 63.78125 422.085938 C 62.378906 423.347656 60.902344 424.519531 59.355469 425.597656 C 57.808594 426.675781 56.199219 427.65625 54.53125 428.535156 C 52.863281 429.414062 51.144531 430.1875 49.378906 430.851562 C 47.613281 431.515625 45.816406 432.070312 43.980469 432.507812 C 42.144531 432.949219 40.292969 433.277344 38.417969 433.484375 C 36.542969 433.695312 34.660156 433.789062 32.773438 433.761719 C 15.628906 433.761719 12.472656 430.667969 4.492188 425.941406 C 4.902344 427.078125 5.398438 428.179688 5.980469 429.242188 C 6.558594 430.308594 7.214844 431.320312 7.953125 432.28125 C 8.6875 433.246094 9.492188 434.144531 10.367188 434.984375 C 11.238281 435.824219 12.171875 436.59375 13.164062 437.289062 C 14.152344 437.984375 15.191406 438.601562 16.277344 439.136719 C 17.363281 439.675781 18.484375 440.125 19.640625 440.492188 C 20.792969 440.855469 21.96875 441.132812 23.167969 441.316406 C 24.363281 441.5 25.566406 441.59375 26.78125 441.59375 L 47.46875 441.59375 C 48.246094 441.59375 49.019531 441.554688 49.792969 441.480469 C 50.5625 441.402344 51.332031 441.289062 52.089844 441.140625 C 52.851562 440.988281 53.605469 440.800781 54.347656 440.574219 C 55.089844 440.347656 55.816406 440.085938 56.535156 439.789062 C 57.25 439.492188 57.953125 439.164062 58.636719 438.796875 C 59.320312 438.429688 59.984375 438.03125 60.628906 437.601562 C 61.273438 437.171875 61.898438 436.710938 62.496094 436.21875 C 63.097656 435.726562 63.671875 435.203125 64.21875 434.65625 C 64.765625 434.109375 65.289062 433.535156 65.78125 432.933594 C 66.273438 432.335938 66.734375 431.710938 67.164062 431.066406 C 67.59375 430.421875 67.992188 429.757812 68.359375 429.074219 C 68.726562 428.390625 69.054688 427.6875 69.351562 426.972656 C 69.648438 426.253906 69.910156 425.527344 70.136719 424.785156 C 70.363281 424.042969 70.550781 423.289062 70.699219 422.527344 C 70.851562 421.769531 70.964844 421 71.042969 420.230469 C 71.117188 419.457031 71.15625 418.683594 71.15625 417.90625 Z M 71.15625 413.558594 " fill-opacity="1" fill-rule="nonzero"/><path fill="#f06880" d="M 29.636719 392.042969 C 29.179688 391.660156 28.664062 391.375 28.097656 391.1875 C 27.527344 391 26.945312 390.921875 26.347656 390.957031 C 25.753906 390.988281 25.183594 391.132812 24.640625 391.382812 C 24.09375 391.632812 23.617188 391.972656 23.203125 392.402344 L 21.8125 393.796875 L 20.417969 392.402344 C 20.003906 391.972656 19.523438 391.632812 18.980469 391.382812 C 18.433594 391.132812 17.863281 390.992188 17.265625 390.957031 C 16.667969 390.925781 16.085938 391.003906 15.515625 391.195312 C 14.949219 391.382812 14.433594 391.667969 13.972656 392.054688 C 13.746094 392.261719 13.539062 392.488281 13.351562 392.738281 C 13.167969 392.984375 13.011719 393.25 12.882812 393.53125 C 12.753906 393.8125 12.652344 394.101562 12.582031 394.402344 C 12.511719 394.703125 12.472656 395.011719 12.464844 395.320312 C 12.457031 395.628906 12.476562 395.933594 12.53125 396.238281 C 12.585938 396.542969 12.671875 396.839844 12.785156 397.128906 C 12.898438 397.414062 13.042969 397.6875 13.210938 397.945312 C 13.382812 398.203125 13.578125 398.441406 13.796875 398.660156 L 20.667969 405.519531 C 20.816406 405.671875 20.992188 405.789062 21.1875 405.875 C 21.386719 405.957031 21.59375 405.996094 21.804688 405.996094 C 22.019531 405.996094 22.226562 405.957031 22.425781 405.875 C 22.621094 405.789062 22.796875 405.671875 22.945312 405.519531 L 29.816406 398.648438 C 30.035156 398.429688 30.226562 398.191406 30.398438 397.933594 C 30.570312 397.675781 30.710938 397.402344 30.824219 397.117188 C 30.941406 396.828125 31.023438 396.53125 31.078125 396.226562 C 31.132812 395.921875 31.15625 395.617188 31.148438 395.308594 C 31.140625 395 31.101562 394.691406 31.03125 394.390625 C 30.960938 394.089844 30.859375 393.800781 30.730469 393.519531 C 30.601562 393.238281 30.441406 392.972656 30.257812 392.722656 C 30.074219 392.476562 29.867188 392.246094 29.636719 392.042969 Z M 29.636719 392.042969 " fill-opacity="1" fill-rule="nonzero"/><path fill="#f06880" d="M 60.277344 392.042969 C 59.816406 391.65625 59.300781 391.371094 58.730469 391.183594 C 58.164062 390.996094 57.582031 390.917969 56.980469 390.953125 C 56.382812 390.984375 55.8125 391.128906 55.269531 391.378906 C 54.722656 391.628906 54.246094 391.96875 53.832031 392.402344 L 52.441406 393.796875 L 51.046875 392.402344 C 50.632812 391.972656 50.152344 391.632812 49.605469 391.382812 C 49.0625 391.132812 48.492188 390.992188 47.894531 390.957031 C 47.296875 390.925781 46.710938 391.003906 46.144531 391.195312 C 45.574219 391.382812 45.0625 391.667969 44.601562 392.054688 C 44.371094 392.261719 44.164062 392.488281 43.980469 392.738281 C 43.796875 392.984375 43.640625 393.25 43.511719 393.53125 C 43.382812 393.8125 43.28125 394.101562 43.210938 394.402344 C 43.140625 394.707031 43.101562 395.011719 43.09375 395.320312 C 43.085938 395.628906 43.105469 395.9375 43.160156 396.242188 C 43.214844 396.546875 43.300781 396.839844 43.414062 397.128906 C 43.53125 397.414062 43.671875 397.6875 43.84375 397.945312 C 44.011719 398.203125 44.207031 398.441406 44.425781 398.660156 L 51.296875 405.53125 C 51.449219 405.683594 51.621094 405.804688 51.820312 405.886719 C 52.015625 405.96875 52.222656 406.007812 52.4375 406.007812 C 52.648438 406.007812 52.855469 405.96875 53.054688 405.886719 C 53.25 405.804688 53.425781 405.683594 53.574219 405.53125 L 60.445312 398.660156 C 60.664062 398.441406 60.859375 398.203125 61.03125 397.945312 C 61.203125 397.6875 61.347656 397.414062 61.460938 397.125 C 61.578125 396.839844 61.664062 396.542969 61.71875 396.238281 C 61.773438 395.933594 61.796875 395.625 61.789062 395.316406 C 61.78125 395.003906 61.742188 394.699219 61.671875 394.398438 C 61.601562 394.09375 61.5 393.804688 61.371094 393.523438 C 61.238281 393.242188 61.082031 392.976562 60.898438 392.726562 C 60.714844 392.476562 60.507812 392.25 60.277344 392.042969 Z M 60.277344 392.042969 " fill-opacity="1" fill-rule="nonzero"/><path fill="#864e20" d="M 51.558594 409.367188 L 22.691406 409.367188 C 22.472656 409.367188 22.265625 409.410156 22.066406 409.496094 C 21.871094 409.582031 21.699219 409.707031 21.554688 409.867188 C 21.40625 410.027344 21.300781 410.210938 21.234375 410.417969 C 21.167969 410.625 21.144531 410.835938 21.167969 411.050781 C 21.546875 414.683594 23.875 422.933594 37.125 422.933594 C 50.375 422.933594 52.703125 414.683594 53.082031 411.050781 C 53.105469 410.835938 53.082031 410.625 53.015625 410.417969 C 52.949219 410.210938 52.84375 410.027344 52.695312 409.867188 C 52.550781 409.707031 52.378906 409.582031 52.183594 409.496094 C 51.984375 409.410156 51.777344 409.367188 51.558594 409.367188 Z M 51.558594 409.367188 " fill-opacity="1" fill-rule="nonzero"/><path fill="#f06880" d="M 37.125 422.933594 C 40.324219 423.039062 43.375 422.421875 46.28125 421.078125 C 45.851562 420.414062 45.3125 419.851562 44.664062 419.398438 C 44.019531 418.941406 43.308594 418.621094 42.539062 418.441406 C 38.382812 417.511719 37.125 418.777344 37.125 418.777344 C 37.125 418.777344 35.867188 417.519531 31.710938 418.441406 C 30.941406 418.621094 30.230469 418.941406 29.585938 419.398438 C 28.9375 419.851562 28.398438 420.414062 27.96875 421.078125 C 30.875 422.421875 33.925781 423.039062 37.125 422.933594 Z M 37.125 422.933594 " fill-opacity="1" fill-rule="nonzero"/></svg>