<svg width="64" height="320" viewBox="0 0 64 320" xmlns="http://www.w3.org/2000/svg">
    <g id="rating-0" transform="translate(0, 0)">
		<defs><style>.a{fill:#f8de40;}.b{fill:#fff;}.c{fill:#864e20;}.d{fill:#e7c930;}</style></defs><rect class="a" x="1" y="1" width="22" height="22" rx="7.656"/><path class="b" d="M7.055,7.313A1.747,1.747,0,1,0,8.8,9.059,1.747,1.747,0,0,0,7.055,7.313Z"/><path class="c" d="M7.055,7.313a.873.873,0,1,0,.873.873A.873.873,0,0,0,7.055,7.313Z"/><path class="d" d="M23,13.938a14.69,14.69,0,0,1-12.406,6.531c-5.542,0-6.563-1-9.142-2.529A7.66,7.66,0,0,0,8.656,23h6.688A7.656,7.656,0,0,0,23,15.344Z"/><path class="c" d="M13.709,13.063H10.291c-.288,0-.521.139-.521.312s.233.312.521.312h3.418c.288,0,.521-.139.521-.312S14,13.063,13.709,13.063Z"/><path class="b" d="M16.958,7.313A1.747,1.747,0,1,0,18.7,9.059,1.747,1.747,0,0,0,16.958,7.313Z"/><path class="c" d="M16.957,7.313a.873.873,0,1,0,.874.873A.873.873,0,0,0,16.957,7.313Z"/></svg>
    </g>

    <g id="rating-1" transform="translate(0, 64)">
		<defs>
		<style>.a{fill:#e7253e;}.b{fill:#b51f36;}.c{fill:#90192d;}</style>
		</defs>
		<rect class="a" x="1" y="1" width="22" height="22" rx="7.656"/>
		<path class="b" d="M23,13.938a14.69,14.69,0,0,1-12.406,6.531c-5.542,0-6.563-1-9.142-2.529A7.66,7.66,0,0,0,8.656,23h6.688A7.656,7.656,0,0,0,23,15.344Z"/>
		<path class="c" d="M9.565,8.513A16.121,16.121,0,0,1,5.63,6.328a.52.52,0,0,0-.832.4c-.048,1.583.151,4.483,2.258,4.483A2.6,2.6,0,0,0,9.9,9.1.517.517,0,0,0,9.565,8.513Z"/>
		<path class="c" d="M19.2,6.731a.521.521,0,0,0-.832-.4,16.121,16.121,0,0,1-3.935,2.185A.517.517,0,0,0,14.1,9.1a2.6,2.6,0,0,0,2.84,2.11C19.051,11.214,19.25,8.314,19.2,6.731Z"/>
		<path class="c" d="M14,13.937a.318.318,0,0,1-.313-.326,2.105,2.105,0,0,0-.5-1.331A1.6,1.6,0,0,0,12,11.847a1.6,1.6,0,0,0-1.187.43,2.092,2.092,0,0,0-.5,1.335.32.32,0,0,1-.64.012,2.715,2.715,0,0,1,.679-1.792A2.211,2.211,0,0,1,12,11.207a2.211,2.211,0,0,1,1.647.625,2.721,2.721,0,0,1,.679,1.792A.321.321,0,0,1,14,13.937Z"/>
	 </g>


    <g id="rating-2" transform="translate(0, 128)">
        </g>

    <g id="rating-3" transform="translate(0, 192)">
        </g>

    <g id="rating-4" transform="translate(0, 256)">
        </g>
</svg>